<?xml version="1.0" encoding="UTF-8" standalone="no"?>
<svg
   version="1.1"
   id="Layer_1"
   x="0px"
   y="0px"
   width="100%"
   viewBox="0 0 375 375"
   enable-background="new 0 0 375 375"
   xml:space="preserve"
   sodipodi:docname="Viswam-logo-orig.svg"
   inkscape:version="1.4 (e7c3feb100, 2024-10-09)"
   xmlns:inkscape="http://www.inkscape.org/namespaces/inkscape"
   xmlns:sodipodi="http://sodipodi.sourceforge.net/DTD/sodipodi-0.dtd"
   xmlns:xlink="http://www.w3.org/1999/xlink"
   xmlns="http://www.w3.org/2000/svg"
   xmlns:svg="http://www.w3.org/2000/svg"><defs
   id="defs145"><linearGradient
     id="linearGradient145"
     inkscape:collect="always"><stop
       style="stop-color:#57bbcc;stop-opacity:1;"
       offset="0"
       id="stop146" /><stop
       style="stop-color:#2f60aa;stop-opacity:1;"
       offset="1"
       id="stop145" /></linearGradient><radialGradient
     inkscape:collect="always"
     xlink:href="#linearGradient145"
     id="radialGradient146"
     cx="-197.70419"
     cy="194.63159"
     fx="-197.70419"
     fy="194.63159"
     r="251.45173"
     gradientTransform="matrix(0.44146642,0,0,0.47506317,260.97621,57.741127)"
     gradientUnits="userSpaceOnUse" /></defs><sodipodi:namedview
   id="namedview145"
   pagecolor="#ffffff"
   bordercolor="#000000"
   borderopacity="0.25"
   inkscape:showpageshadow="2"
   inkscape:pageopacity="0.0"
   inkscape:pagecheckerboard="false"
   inkscape:deskcolor="#d1d1d1"
   inkscape:zoom="1.4142136"
   inkscape:cx="80.610173"
   inkscape:cy="148.84598"
   inkscape:window-width="1920"
   inkscape:window-height="1014"
   inkscape:window-x="0"
   inkscape:window-y="0"
   inkscape:window-maximized="1"
   inkscape:current-layer="Layer_1"
   inkscape:export-bgcolor="#ffffff00" />

<path
   fill="#1378B2"
   opacity="1.000000"
   stroke="none"
   d=" M43.587845,101.546165   C66.442825,47.731991 106.269112,16.183645 164.205368,10.004580   C240.043686,1.916210 308.760925,55.554054 319.586304,131.290237   C326.773987,181.576706 310.898346,224.555771 273.673615,259.397308   C271.305359,261.613953 269.267212,263.722107 265.129791,261.967529   C260.985657,260.210175 258.084869,262.608643 255.873245,267.961639   C252.633438,275.803284 252.633408,275.803284 243.865097,279.338379   C246.395706,275.857758 250.143753,272.700409 247.083069,267.823730   C263.707184,257.538391 277.445221,244.667084 288.417847,228.837814   C344.838989,147.443893 295.140930,33.667419 197.053726,19.736567   C121.686096,9.032464 53.301926,61.507565 44.245281,137.374130   C40.766750,166.513412 46.390507,194.166550 61.365799,219.465469   C65.387154,226.259079 65.023346,232.786102 64.186867,239.833405   C33.302452,197.510223 25.854586,151.612076 43.587845,101.546165  z"
   id="path2" />
<path
   fill="#FC0F0F"
   opacity="1.000000"
   stroke="none"
   d=" M88.219414,350.180664   C83.116837,356.909363 78.157074,356.929901 75.618271,349.431091   C72.183853,339.286926 68.717346,328.632904 68.325630,318.083984   C67.413055,293.508881 68.405334,268.866028 68.477676,244.250214   C68.518242,230.443939 68.185318,216.636581 68.218452,202.830185   C68.224007,200.515671 66.586357,196.726288 70.568008,196.524887   C71.606468,196.472351 73.856812,200.823776 73.873764,203.164658   C74.037498,225.772507 74.210526,248.392166 73.644905,270.990021   C73.107315,292.467316 71.963905,313.921783 76.006203,335.196930   C77.006531,340.461823 77.535881,346.042603 82.874123,350.832397   C84.777664,345.978363 86.724068,341.847229 88.041245,337.524353   C98.404305,303.513702 108.630951,269.461517 118.961685,235.440948   C119.679413,233.077393 120.711884,230.756424 121.968559,228.635178   C122.481491,227.769348 123.982269,227.488739 125.033623,226.941864   C125.189178,228.102661 125.749817,229.385941 125.441299,230.406433   C116.788315,259.028473 108.103630,287.641296 99.293091,316.215179   C95.820488,327.477356 92.034927,338.643005 88.219414,350.180664  z"
   id="path3" />
<path
   fill="#FC1212"
   opacity="1.000000"
   stroke="none"
   d=" M159.312424,291.406708   C167.688507,285.315491 177.565872,281.295135 184.108063,272.836395   C185.204376,271.418915 187.397339,270.849609 189.662109,270.577301   C185.357910,279.536011 180.791458,287.897888 180.774399,298.123962   C183.416870,294.809174 185.915512,291.363312 188.765030,288.237244   C190.106552,286.765472 192.122299,285.908264 193.832535,284.772583   C194.868271,286.555969 196.199112,288.235809 196.869949,290.147278   C197.854523,292.952728 198.095016,296.026306 199.140274,298.801971   C201.043228,303.855377 204.031082,304.396393 207.572159,300.222778   C211.757050,295.290375 214.296326,289.577789 214.381927,282.934784   C214.408234,280.893707 214.759842,278.856842 215.653488,276.792267   C219.085953,280.678162 219.039597,285.495850 217.533340,289.518280   C215.599335,294.682922 212.643036,299.689178 209.174179,303.996155   C205.110748,309.041412 199.864700,308.124390 196.925735,302.204102   C195.027298,298.379944 193.966568,294.139862 192.271942,289.356567   C190.402069,291.896637 188.723434,294.395752 186.818970,296.708984   C184.396317,299.651581 182.505356,305.019226 177.938507,303.057709   C172.949677,300.915009 175.068649,295.631531 175.936737,291.470154   C176.432846,289.091858 177.203156,286.770813 177.055725,283.612000   C172.222672,287.207184 167.274399,290.664490 162.659454,294.520691   C161.797256,295.241150 162.016235,297.585785 162.170395,299.137787   C163.067841,308.173645 160.113434,315.879547 153.997894,322.342957   C151.313080,325.180481 147.888107,327.481262 143.789246,325.174652   C139.694855,322.870544 140.164139,318.646179 141.719116,315.433685   C144.139938,310.432343 147.481384,305.855743 150.645844,301.245422   C151.930283,299.374176 153.774155,297.886932 155.946243,295.615509   C152.325836,292.204803 148.994980,289.066895 145.554123,285.825378   C141.978806,289.601044 138.680008,293.326172 135.114883,296.776062   C132.053802,299.738220 128.482880,302.183289 123.930908,300.611633   C119.189651,298.974609 117.415062,294.670990 117.293861,290.309265   C117.133621,284.542664 117.851463,278.713898 118.685287,272.983643   C118.897339,271.526398 120.974693,270.340576 122.194984,269.030060   C122.706161,270.700012 123.664093,272.374420 123.647552,274.039154   C123.590279,279.803528 122.616676,285.612335 123.088326,291.313507   C123.564468,297.069122 126.756439,298.364746 131.174744,294.839935   C136.817642,290.338196 142.178680,285.652130 144.294693,277.976868   C145.117157,274.993591 148.923431,272.720520 151.657654,270.473267   C152.193024,270.033234 154.051300,271.202820 155.299438,271.630005   C154.758316,272.634033 154.474686,274.041962 153.634827,274.577423   C147.587524,278.432953 147.422348,280.889740 152.899582,285.287476   C155.091858,287.047668 156.993637,289.169617 159.312424,291.406708  M144.898148,317.712128   C145.011917,319.086761 145.125671,320.461395 145.248901,321.950226   C153.151031,319.554932 157.801605,310.199982 155.163513,299.744781   C151.767502,305.462830 148.371490,311.180908 144.898148,317.712128  z"
   id="path4" />
<path
   fill="#fc1212"
   opacity="1"
   stroke="none"
   d="m 235.57086,273.59952 c 2.92423,-1.737 3.51244,0.34256 3.81711,2.47232 0.37627,2.63043 0.23466,5.36044 0.8295,7.92868 1.15886,5.00339 5.49675,6.67218 9.46945,3.47763 4.38341,-3.52481 8.50558,-7.3764 9.24588,-13.56967 0.24979,-2.08982 0.99869,-4.27408 2.10565,-6.04978 0.66846,-1.07226 2.46414,-1.44189 3.75333,-2.12722 0.39603,1.24929 1.2691,2.56701 1.1015,3.73547 -0.57666,4.02072 -1.51718,7.9892 -1.27054,12.35083 2.13452,-3.48315 3.98749,-7.18765 6.49494,-10.37769 1.91973,-2.44238 4.66632,-4.23486 7.04516,-6.31637 1.65518,2.36773 3.3104,4.7355 5.21085,7.45413 1.79571,-1.92368 3.88528,-4.47607 6.3248,-6.6326 1.09045,-0.96396 3.18698,-1.88538 4.27075,-1.448 1.04843,0.42313 1.92734,2.61533 1.93017,4.03244 0.009,4.65134 -0.48004,9.30121 -0.64578,13.95633 -0.10647,2.98941 -0.22793,6.0177 0.13745,8.96912 0.20575,1.66205 1.24774,4.42651 2.15781,4.52942 1.59955,0.18094 3.892,-0.8692 4.99866,-2.1673 3.00766,-3.52798 5.5075,-7.4848 8.2922,-11.20914 0.9856,-1.31814 2.21268,-2.45578 4.25907,-3.07946 -0.12439,1.56604 -0.27886,3.38585 -0.39101,4.80691 -2.1209,2.99139 -4.13574,6.19098 -6.52169,9.08457 -1.88416,2.28503 -3.98893,4.53958 -6.41458,6.19323 -4.25794,2.90284 -8.70795,1.7645 -9.89032,-3.16528 -1.32691,-5.53235 -1.26734,-11.42825 -1.49793,-17.17853 -0.1044,-2.60397 0.54706,-5.23828 -0.0429,-8.40375 -1.28204,1.36161 -2.54336,2.74341 -3.84988,4.08112 -4.29028,4.39267 -6.90305,3.69159 -8.57074,-2.28805 -0.16879,-0.60517 -0.29151,-1.22321 -0.78259,-3.30942 -1.94355,3.05401 -3.36289,5.11139 -4.6019,7.27215 -1.81674,3.16834 -3.32477,6.52548 -5.28668,9.59619 -3.48511,5.45478 -5.84568,5.33173 -8.83991,0.52253 -4.60316,2.12817 -8.97304,5.52398 -13.61671,5.95242 -6.00776,0.55429 -7.7831,-5.13446 -9.18097,-10.66031 -1.97074,3.43085 -3.47498,6.72757 -5.63085,9.52142 -1.10545,1.43268 -3.65919,2.99454 -5.03785,2.61368 -1.3382,-0.36963 -2.83516,-3.15018 -2.8353,-4.87207 -7.2e-4,-8.39542 3.23381,-15.70422 9.66499,-21.03302 1.87265,-1.55167 5.57102,-1.74286 8.18434,-1.24777 1.61866,0.3067 2.76981,3.08087 4.90531,5.69574 -4.78548,0.0911 -7.22896,-4.92926 -11.01015,-0.58698 -3.69606,4.73044 -6.73715,9.094 -6.04373,15.08045 2.58769,-4.53479 5.17538,-9.06958 7.76309,-13.60437 z"
   id="path5"
   sodipodi:nodetypes="cssssscscsccsscsssssccsssscsscsscscssssscccc" />






<path
   d="m 341.50402,280.49201 h -11.8464 l -3.21839,7.19865 h -4.17705 l 10.91056,-28.67739 h 5.06725 l 10.7736,28.67739 h -4.38248 z m -1.09562,-3.28687 -4.72486,-13.96916 -5.06725,13.96916 z m 16.02346,-18.19187 v 28.67739 h -3.90315 v -28.67739 z"
   id="text146"
   style="font-size:46.7465px;font-family:Akaash;-inkscape-font-specification:'Akaash, @wght=400';font-variation-settings:'wght' 400;fill:#fc1212;stroke-width:4.57326"
   aria-label="AI"
   sodipodi:nodetypes="cccccccccccccccccc" /><path
   fill="#1478B2"
   opacity="1.000000"
   stroke="none"
   d=" M84.594711,249.434692   C89.822960,253.820724 94.655746,258.151917 99.820877,262.041840   C106.379951,266.981567 106.496201,266.827209 102.253082,275.405975   C95.238037,269.904419 87.740799,265.097382 81.767204,258.836578   C79.211311,256.157776 79.829208,250.450806 79.004997,246.119797   C79.496391,245.960312 79.987793,245.800827 80.479187,245.641342   C81.768417,246.822189 83.057648,248.003021 84.594711,249.434692  z"
   id="path12" />

















































<path
   fill="#177AB4"
   opacity="1.000000"
   stroke="none"
   d=" M131.428345,278.837311   C133.446014,279.572540 135.114777,280.191193 137.346603,281.018616   C134.435043,283.787079 133.557205,289.397949 128.727859,287.212952   C126.846680,286.361847 126.844460,281.357788 125.642151,276.996826   C128.696442,277.965210 129.887924,278.342957 131.428345,278.837311  z"
   id="path62" />
<path
   fill="#177AB4"
   opacity="1.000000"
   stroke="none"
   d=" M206.736969,291.749542   C205.117523,292.867493 203.667633,293.635254 201.754730,294.648193   C200.984390,291.070648 200.407898,288.393433 199.743576,285.308228   C202.848236,284.709839 205.674347,284.165131 209.690552,283.391052   C208.560257,286.642395 207.733383,289.020874 206.736969,291.749542  z"
   id="path63" />














<path
   fill="#FB1818"
   opacity="1.000000"
   stroke="none"
   d=" M127.310905,249.813934   C127.971573,250.596359 128.428024,251.125641 128.634094,251.739014   C129.541992,254.441483 129.237122,257.004578 126.097977,257.548767   C125.068352,257.727264 122.657379,255.689575 122.602005,254.579376   C122.473137,251.995804 122.510704,248.548950 127.310905,249.813934  z"
   id="path78" />







































<path
   fill="#4D99C0"
   opacity="1.000000"
   stroke="none"
   d=" M129.405136,170.830933   C129.901138,170.619736 130.752716,170.520020 131.791748,170.634720   C131.239700,170.880234 130.500198,170.911316 129.405136,170.830933  z"
   id="path118" />


<path
   fill="#61ADC9"
   opacity="1.000000"
   stroke="none"
   d=" M202.725372,190.887268   C202.915192,191.176498 202.966873,191.684113 203.022491,192.572205   C202.880035,192.337021 202.733627,191.721313 202.725372,190.887268  z"
   id="path121" />


<path
   fill="#3b6daf"
   opacity="1"
   stroke="none"
   d="M 279.97247,170.04159 C 0,0 0,0 279.97247,170.04159 Z"
   id="path124"
   sodipodi:nodetypes="cc" />



<path
   fill="#3764AB"
   opacity="1.000000"
   stroke="none"
   d=" M227.034271,55.019054   C227.026627,55.016373 227.050095,55.131100 227.058441,55.077919   C227.066772,55.024734 227.041901,55.021736 227.034271,55.019054  z"
   id="path128" />


<path
   fill="#F5F9F5"
   opacity="1.000000"
   stroke="none"
   d=" M219.533295,86.557755   C219.469498,86.596626 219.597107,86.518875 219.533295,86.557755  z"
   id="path131" />





<path
   fill="#346CAE"
   opacity="1.000000"
   stroke="none"
   d=" M164.001495,260.001831   C163.910629,260.038086 163.818283,260.072510 163.861084,260.052002   C163.996246,259.997131 164.000000,260.000000 164.001495,260.001831  z"
   id="path137" />








<path
   style="fill:url(#radialGradient146);fill-opacity:1;stroke-width:0.441467"
   d="m 119.84679,269.05571 c 0,-0.91179 2.19819,-1.62256 14.71556,-4.75816 6.31297,-1.58139 13.17397,-3.55342 15.24668,-4.38229 7.18089,-2.87158 11.35393,-6.70153 13.75489,-12.62399 1.30219,-3.21211 1.31232,-3.48602 1.29464,-35.023 -0.0151,-26.90173 -0.16732,-32.62887 -0.99094,-37.27392 -1.00143,-5.64785 -1.97986,-7.85468 -3.94994,-8.90904 -0.92828,-0.4968 -1.91073,-0.077 -5.44475,2.32644 -2.37166,1.61294 -5.08798,3.62623 -6.03628,4.47398 -1.61864,1.44704 -1.67837,1.65466 -0.97579,3.39193 2.97596,7.35883 3.05026,13.43125 0.27107,22.15799 -2.00129,6.28414 -2.1038,10.18322 -0.34603,13.1624 1.48434,2.51577 1.70562,5.78413 0.46152,6.81665 -0.46302,0.38428 -1.83317,0.61536 -3.04477,0.51355 -1.84592,-0.15514 -2.29634,-0.46716 -2.77944,-1.92541 -0.39387,-1.1889 -0.36167,-2.54366 0.10161,-4.27596 0.37301,-1.39464 0.6782,-4.61672 0.6782,-7.16021 0,-3.38336 0.47295,-6.26419 1.76221,-10.7339 0.96923,-3.36016 1.76387,-6.97876 1.76587,-8.04132 0.009,-4.45327 -3.66156,-8.95757 -7.29836,-8.95757 -3.52123,0 -9.71558,5.18726 -10.65261,8.92066 -0.26368,1.0506 0.10665,2.01506 1.39712,3.63897 1.87988,2.36552 3.00653,6.39331 3.03973,10.86707 0.044,5.92143 1.59771,11.8366 5.0281,19.14201 4.43404,9.44276 6.69587,15.95923 6.71127,19.33561 0.0188,4.11956 -0.32417,4.60996 -3.22405,4.60996 -2.21497,0 -2.56806,-0.18345 -2.90019,-1.5068 -0.40977,-1.63263 0.0812,-5.22289 0.94201,-6.88975 0.3917,-0.75841 -0.20971,-2.80666 -2.22818,-7.58867 l -2.76469,-6.54989 -2.21922,5.72704 c -2.59687,6.70158 -3.57463,7.97874 -6.10824,7.97874 -2.33128,0 -3.26639,-0.92163 -3.2549,-3.208 0.0117,-2.31995 0.54293,-3.10035 2.94399,-4.32443 3.80986,-1.9423 4.41028,-3.48493 4.35992,-11.20161 -0.0489,-7.4994 -0.78225,-10.19881 -2.40479,-8.85222 -0.49279,0.40898 -2.4899,3.93573 -4.43803,7.83725 -1.94812,3.9015 -5.03611,9.46247 -6.8622,12.3577 -3.22353,5.11084 -3.32018,5.38496 -3.32018,9.41795 v 4.15389 l -2.54514,0.18312 c -5.60089,0.403 -5.54456,-2.71018 0.21703,-11.99511 10.95737,-17.65804 11.59415,-19.38424 8.86728,-24.03731 -3.08107,-5.25742 -5.20741,-5.61102 -11.19873,-1.86234 -5.91521,3.70106 -8.947794,7.06702 -12.085953,13.41462 -2.519921,5.09709 -2.829282,5.4736 -4.640917,5.64844 -2.550682,0.24615 -3.629999,-0.7411 -3.629999,-3.32036 0,-1.88594 0.575405,-2.6625 5.507549,-7.43286 3.029149,-2.92979 6.224556,-6.32461 7.10091,-7.54405 1.13353,-1.57728 2.8991,-2.83634 6.11774,-4.36264 5.5252,-2.62008 10.56141,-7.43777 14.20122,-13.58507 1.39123,-2.34965 4.21981,-6.15716 6.28574,-8.46113 2.06594,-2.30399 3.75625,-4.57082 3.75625,-5.03741 0,-3.57551 -5.98298,-5.50778 -10.80957,-3.4911 -2.35121,0.9824 -3.96017,2.94195 -6.03064,7.34476 -6.22358,13.23429 -15.845604,21.66957 -27.306438,23.93858 -2.428068,0.48071 -5.808302,1.29556 -7.511629,1.81077 -2.232509,0.67528 -3.711218,0.79239 -5.297598,0.4196 -2.023055,-0.47543 -2.215799,-0.70081 -2.388523,-2.79295 -0.117434,-1.42238 0.103292,-2.46039 0.58862,-2.76812 1.275869,-0.809 5.122662,-0.57605 7.063803,0.42775 6.555519,3.38999 24.068845,-8.1657 29.689965,-19.5901 2.13457,-4.33832 2.4332,-7.25145 0.88683,-8.65089 -1.16882,-1.05777 -1.37754,-1.06271 -5.12603,-0.12112 -7.337449,1.84311 -12.882592,5.6456 -16.516059,11.32562 -1.600622,2.50217 -2.376365,3.17006 -4.0458,3.48324 -2.691083,0.50485 -3.818424,-0.45719 -3.818424,-3.25853 0,-2.53747 0.868863,-3.47622 4.800367,-5.18645 1.507109,-0.65561 4.142157,-2.3002 5.855666,-3.65465 7.120756,-5.62864 13.51011,-7.63564 24.36698,-7.65406 3.8849,-0.007 8.11788,-0.30471 9.40661,-0.66248 3.53812,-0.98226 7.15688,-3.76598 8.92646,-6.86664 3.27324,-5.7354 6.00077,-7.37584 12.27528,-7.38284 4.8883,-0.005 7.36779,1.00621 10.61408,4.3307 1.29644,1.32768 2.84096,2.33515 3.57997,2.33515 1.64675,0 4.34753,-3.15282 4.34753,-5.07521 0,-2.00775 -2.31363,-4.13125 -5.37709,-4.9352 -1.41311,-0.37085 -4.95323,-1.77246 -7.86691,-3.11469 -4.36446,-2.01056 -5.91967,-2.43865 -8.82932,-2.4303 -4.57769,0.0131 -6.5699,1.07187 -17.20708,9.14474 -9.91812,7.52715 -11.9608,8.30546 -24.29076,9.25544 -13.458446,1.03692 -23.552461,4.72108 -29.65543,10.8238 -3.232404,3.23227 -3.622361,3.44985 -5.886218,3.28437 l -2.424481,-0.17724 -0.177888,-2.75879 c -0.201975,-3.13231 0.332675,-3.64615 4.320146,-4.15193 1.322342,-0.16773 3.912739,-1.28421 5.840141,-2.51715 8.348639,-5.34056 16.374186,-7.76118 28.09786,-8.47471 8.08972,-0.49236 11.94716,-1.5274 12.66511,-3.39838 0.56116,-1.46233 -2.82731,-4.11597 -6.68942,-5.23871 -3.24047,-0.94203 -3.47733,-0.93247 -6.92982,0.27989 -4.761506,1.67203 -7.558289,1.5762 -13.719651,-0.47012 -2.837558,-0.94241 -7.313044,-2.04296 -9.945517,-2.44565 -4.552817,-0.69644 -4.886437,-0.67027 -6.838628,0.53625 -3.854011,2.3819 -6.916645,1.37972 -6.916645,-2.26334 0,-3.54902 2.647537,-4.41272 8.283005,-2.70214 5.337299,1.62007 22.449814,4.57568 24.387656,4.21213 1.88955,-0.35449 5.00115,-2.86113 5.00115,-4.02884 0,-0.32584 -1.286564,-1.879 -2.859032,-3.45146 -2.494948,-2.49495 -3.168034,-2.85901 -5.285683,-2.85901 -3.808985,0 -6.826692,-1.54374 -9.783702,-5.00496 -3.933427,-4.60413 -6.92207,-5.87208 -13.857176,-5.87898 l -5.591906,-0.005 -0.177915,-3.09027 -0.17792,-3.09026 h 3.051549 c 1.969275,0 3.702482,0.39843 4.886891,1.1234 1.00944,0.61786 3.027304,1.44027 4.484143,1.82756 3.434654,0.91309 4.895342,1.69165 9.148346,4.87619 1.928861,1.44428 6.420709,3.86593 9.981862,5.38144 3.561173,1.51551 7.666813,3.74975 9.123643,4.965 4.04567,3.37476 3.79285,3.37102 8.17677,0.12109 5.31663,-3.94138 7.43478,-4.75638 12.36163,-4.75638 3.17734,0 5.08286,0.39565 8.50482,1.76587 5.377,2.15305 9.66129,2.37439 11.28257,0.5829 0.94411,-1.04324 0.97528,-1.36099 0.26394,-2.69017 -0.44366,-0.82896 -1.76907,-2.37669 -2.94535,-3.43941 -1.80363,-1.62947 -2.89646,-2.05007 -6.97512,-2.68455 -5.71156,-0.88851 -9.83226,-0.51068 -15.31242,1.40397 -5.45968,1.90749 -9.0315,2.30352 -13.88528,1.53955 -6.923344,-1.08973 -13.544884,-4.69567 -20.487483,-11.15705 -3.955618,-3.68143 -5.602072,-4.74563 -7.342134,-4.74563 -1.606987,0 -3.073039,-1.86144 -3.073039,-3.90182 0,-2.28515 0.952397,-3.16165 3.435439,-3.16165 1.682583,0 2.427862,0.4702 4.431722,2.79595 9.39036,10.89882 14.876862,14.6939 23.778045,16.44753 4.44502,0.87572 4.89854,0.87285 6.2914,-0.0398 0.82558,-0.54094 1.50108,-1.35331 1.50108,-1.80527 0,-1.18227 -8.67553,-8.95674 -11.57304,-10.37104 -1.34715,-0.65755 -3.857135,-1.4181 -5.577729,-1.69009 -2.989027,-0.47251 -3.407258,-0.77931 -9.391352,-6.88911 -3.444655,-3.517011 -7.622893,-7.597748 -9.284974,-9.068312 -3.312747,-2.93102 -3.768857,-4.525768 -1.844725,-6.449894 2.265822,-2.26581 5.666332,-0.789197 6.777732,2.943107 1.727935,5.802787 7.04046,11.647379 13.468107,14.816999 3.580077,1.76541 3.962617,1.84173 4.838961,0.9654 1.85547,-1.85548 2.58181,-10.725427 1.39425,-17.026449 -0.64346,-3.414138 -3.841924,-10.659213 -6.251171,-14.159984 -0.817594,-1.188028 -2.59101,-2.895915 -3.940901,-3.795312 -3.24337,-2.160966 -3.925917,-3.052668 -3.925917,-5.128932 0,-3.305902 3.741407,-4.4584 5.834642,-1.797292 0.666107,0.84682 1.458279,2.434874 1.760388,3.529006 0.302109,1.094134 1.467589,3.062174 2.589975,4.373424 5.225704,6.105068 7.839604,14.113394 8.421364,25.801006 0.4103,8.243143 1.18304,10.798683 4.3591,14.416003 2.92871,3.33561 6.84208,5.05182 13.1378,5.76158 7.22492,0.81452 10.90102,0.43808 12.27348,-1.25682 2.45853,-3.03618 0.18986,-7.65933 -3.76187,-7.66601 -5.89522,-0.01 -10.328,-3.49183 -12.77732,-10.036288 -1.81106,-4.839033 -2.7685,-6.294458 -4.84835,-7.369991 -1.46311,-0.756601 -1.67845,-1.203217 -1.67845,-3.480929 0,-1.980951 0.27538,-2.760369 1.13854,-3.22231 3.14969,-1.685668 5.92492,0.192899 5.92492,4.010611 0,2.458873 5.26096,12.461437 7.46686,14.196607 1.10403,0.86842 2.39533,1.19659 4.7085,1.19659 4.82525,0 6.26133,1.03653 8.76918,6.32935 4.11413,8.6829 15.83554,24.18894 20.17506,26.68921 1.25229,0.72152 1.497,0.66442 2.50912,-0.58548 3.06129,-3.78054 1.79611,-7.00398 -4.38647,-11.17595 -7.40131,-4.99435 -9.81116,-8.90499 -9.81116,-15.92128 0,-4.07289 -2.58658,-7.6018 -12.65537,-17.265916 -5.81526,-5.581546 -13.63278,-12.242169 -20.43614,-17.41186 -6.06,-4.604839 -11.42382,-8.95155 -11.91959,-9.659367 -2.12188,-3.029409 -0.46467,-6.034577 3.10089,-5.623101 1.29815,0.149809 1.92209,0.85855 3.40303,3.86553 0.99738,2.025147 2.45131,4.361091 3.23096,5.190987 2.36443,2.516824 10.91319,8.033177 12.09609,7.805368 2.54529,-0.490173 3.48061,-6.655373 1.74985,-11.534464 -1.20312,-3.391669 -4.06203,-7.434473 -6.65147,-9.405875 -3.92823,-2.990663 -4.88107,-4.157813 -4.88107,-5.978853 0,-1.829284 1.74329,-3.591864 3.55258,-3.591864 1.3562,0 3.7312,2.752416 5.58698,6.474842 0.8877,1.78058 2.32762,4.29694 3.19983,5.591908 0.87222,1.294967 2.0411,3.516977 2.59753,4.937797 1.47601,3.768946 4.25501,7.546948 6.78087,9.218485 1.2158,0.804574 2.8166,2.541201 3.55734,3.859172 1.37656,2.449264 1.42563,4.412505 0.28055,11.225949 -0.35428,2.108078 -0.26803,2.235303 3.2921,4.856131 2.01077,1.480233 3.88235,2.691337 4.15909,2.691337 1.23613,0 1.746,-2.866855 1.80228,-10.133632 0.0333,-4.300633 -0.25197,-9.14359 -0.63397,-10.76212 -1.64156,-6.955414 -6.58777,-13.91808 -10.46831,-14.735997 -2.59533,-0.547024 -3.35445,-1.153964 -3.92306,-3.136599 -0.42344,-1.476445 -0.31524,-2.096858 0.52826,-3.028911 2.09443,-2.314314 5.87874,-1.070658 7.7365,2.542475 0.53088,1.03251 2.13998,3.187854 3.57579,4.789654 5.36012,5.979812 6.59328,9.834009 7.26056,22.69269 0.84545,16.292487 1.71154,24.125374 2.99387,27.076614 1.29943,2.99062 4.09234,6.14377 6.60854,7.46095 1.49339,0.78177 1.79404,0.78351 2.56266,0.0149 2.43472,-2.43471 1.83073,-7.6265 -1.46616,-12.6031 -2.07689,-3.13502 -2.19274,-3.55589 -2.07379,-7.534221 0.0739,-2.473257 0.72161,-6.138203 1.56802,-8.872955 0.79314,-2.562581 1.61232,-5.492671 1.82043,-6.511291 0.50503,-2.472033 -0.8669,-5.619804 -3.86869,-8.876362 -2.52481,-2.739097 -4.02235,-5.710441 -6.70674,-13.307186 -2.69939,-7.639153 -6.97833,-13.095199 -12.47495,-15.906679 -3.27007,-1.67262 -4.83927,-5.49306 -3.00827,-7.324061 1.98774,-1.987738 6.94602,0.535412 6.94551,3.534407 -1.5e-4,0.925068 1.43842,2.700262 4.56183,5.629281 l 4.56204,4.278127 0.58861,-4.278127 0.58863,-4.278126 h 2.6488 2.6488 l 0.18185,2.5192 c 0.13228,1.832351 -0.26682,3.436279 -1.4638,5.882824 -2.21869,4.534837 -2.32111,10.784399 -0.24653,15.043131 1.81471,3.725259 2.76223,4.0243 4.81465,1.519508 3.22624,-3.937332 4.04672,-6.428386 4.77908,-14.509694 0.66563,-7.34481 0.64176,-7.773123 -0.63522,-11.39777 -1.8309,-5.196961 -2.05994,-6.666538 -1.26923,-8.143974 0.57622,-1.076651 1.1129,-1.247834 3.44145,-1.097687 2.65685,0.171315 2.76578,0.250663 2.94744,2.146984 0.10381,1.083001 -0.21395,2.975267 -0.70602,4.205035 -0.63256,1.580922 -0.93611,4.822357 -1.03619,11.064803 l -0.14155,8.828862 1.85939,3.741826 c 2.00291,4.030622 5.16046,7.802479 6.06417,7.243954 0.30665,-0.18952 1.14259,-1.452348 1.85763,-2.806286 1.90713,-3.611109 1.88553,-12.535867 -0.0392,-16.183985 -0.96708,-1.833063 -1.28981,-3.305187 -1.16134,-5.297598 l 0.1779,-2.759133 2.42512,-0.177261 c 2.78472,-0.203544 3.14472,0.409911 3.15876,5.382329 l 0.008,2.850579 3.67888,-2.890954 c 4.02002,-3.159022 6.32768,-6.104699 6.32768,-8.077126 0,-1.832101 1.1169,-2.679475 3.53173,-2.679475 2.5606,0 3.53173,0.85409 3.53173,3.106112 0,1.827083 -2.77479,5.134595 -4.3076,5.134595 -1.08858,0 -7.58894,7.559163 -9.87039,11.478126 -0.94235,1.618711 -2.382,5.120523 -3.19923,7.781806 -1.07147,3.48921 -2.28049,5.875416 -4.335,8.555947 -5.44752,7.107399 -5.75381,8.688823 -3.0099,15.541405 1.39646,3.487481 1.76587,5.306379 1.76587,8.694757 0,3.815765 -0.25267,4.784633 -2.30856,8.852503 -4.58454,9.07114 -3.49544,14.79163 2.25041,11.82033 2.25325,-1.1652 5.10063,-4.52014 5.85265,-6.89589 0.71704,-2.26528 1.56169,-10.68166 2.70765,-26.979944 0.93462,-13.292373 1.67915,-15.930903 6.23811,-22.106802 1.60513,-2.174406 2.91839,-4.172924 2.91839,-4.441152 0,-0.268227 0.82208,-1.423981 1.82684,-2.568344 1.41323,-1.609568 2.27642,-2.080658 3.81248,-2.080658 2.41841,0 4.11562,2.108955 3.54068,4.399669 -0.36022,1.435251 -2.97836,3.252415 -4.68603,3.252415 -1.12587,0 -5.51961,5.485758 -6.95938,8.689049 -0.87812,1.9537 -1.265,4.917686 -1.74924,13.401218 -0.63595,11.141522 -0.45136,12.638425 1.55855,12.638425 1.28801,0 3.83047,-2.395737 5.02284,-4.732986 1.00086,-1.961842 1.1057,-2.985056 0.77835,-7.596767 l -0.3783,-5.329546 4.76452,-4.561499 c 3.60129,-3.447834 5.14137,-5.42375 6.30805,-8.093229 2.20291,-5.040412 3.17115,-6.736499 5.45077,-9.548305 1.10801,-1.366663 2.34798,-3.618141 2.75551,-5.003286 0.86869,-2.95253 2.84382,-4.050486 5.28532,-2.938061 3.16187,1.440638 2.39356,6.023485 -1.20914,7.212487 -5.05164,1.667189 -10.45919,12.839937 -9.11341,18.829559 0.30908,1.375591 0.95923,2.898346 1.44477,3.383898 0.78468,0.784679 1.1696,0.71476 3.46248,-0.628955 1.41881,-0.83148 4.45793,-2.981425 6.75359,-4.777656 3.40572,-2.6648 4.34703,-3.773919 5.11448,-6.026231 1.16814,-3.428301 2.47444,-4.918115 4.31232,-4.918115 3.69618,0 4.95229,3.241776 2.37171,6.120998 -0.72842,0.812719 -5.95535,4.952802 -11.6154,9.200188 -7.23952,5.432634 -13.23387,10.60704 -20.21568,17.450466 -10.84582,10.630864 -12.13208,12.519134 -12.15877,17.849824 -0.034,6.79574 -2.25107,10.3254 -9.26991,14.7582 -5.0397,3.18286 -6.63252,4.94119 -6.63252,7.32171 0,1.95599 1.91054,5.00024 3.13299,4.99208 1.12085,-0.008 14.75952,-14.17343 16.43019,-17.0654 0.8416,-1.45684 2.34689,-4.78472 3.34506,-7.39529 2.49438,-6.52356 4.13777,-8.00484 9.51885,-8.57981 2.2922,-0.24493 4.5693,-0.77866 5.06021,-1.18608 1.16736,-0.96882 4.78534,-6.629887 6.14886,-9.621134 0.59029,-1.294958 1.07907,-3.439176 1.08618,-4.764893 0.0214,-3.990528 3.47956,-5.735756 6.50731,-3.284036 1.90592,1.543315 1.21358,4.380308 -1.96708,8.060447 -1.39353,1.612381 -3.47936,4.943113 -4.63515,7.401646 -2.52903,5.37957 -4.59052,7.09182 -8.94384,7.4286 -4.84956,0.37519 -5.63637,0.68334 -6.85716,2.68554 -1.51953,2.49216 -1.46353,4.05678 0.20116,5.62067 1.24439,1.16905 1.98136,1.27985 8.51292,1.27985 9.15144,0 12.40873,-1.07342 16.26187,-5.35905 3.78693,-4.21199 4.83074,-7.53999 5.24226,-16.714275 0.46396,-10.342676 2.07751,-15.355631 7.48382,-23.25057 1.21931,-1.780578 2.51585,-4.187518 2.8812,-5.34875 0.87883,-2.793216 2.68987,-4.657821 4.52403,-4.657821 4.4063,0 5.15507,3.54954 1.4736,6.985561 -1.25996,1.175944 -3.44534,3.216601 -4.8564,4.534794 -5.27606,4.928803 -7.77478,12.933246 -7.46721,23.920602 0.15672,5.598199 0.38653,7.094059 1.21732,7.923539 0.97253,0.97099 1.16534,0.95416 3.82606,-0.33402 4.3511,-2.10659 10.05977,-6.408212 11.9293,-8.989016 0.93265,-1.287487 2.142,-3.712375 2.68746,-5.388636 1.28288,-3.942465 2.34766,-5.107955 4.66655,-5.107955 4.54698,0 5.33163,5.425837 1.07663,7.444963 -1.11798,0.530526 -3.53931,2.699071 -5.3807,4.818995 -6.82536,7.857729 -10.92148,11.017409 -15.37839,11.862639 -1.62748,0.30864 -4.01552,1.10015 -5.30675,1.75888 -2.30154,1.17415 -10.62242,8.98687 -10.62242,9.97369 0,0.27569 0.93639,0.9456 2.08087,1.4887 1.78902,0.84894 2.55267,0.89063 5.44475,0.29724 9.08006,-1.86303 18.53531,-7.73744 23.74727,-14.75383 2.9733,-4.00267 3.822,-4.644 6.14569,-4.644 1.52896,0 2.01139,0.32623 2.60627,1.7624 0.99617,2.40497 -0.25011,4.22704 -4.27665,6.25252 -1.69383,0.85205 -6.1258,3.80685 -9.84883,6.56623 -8.9651,6.64462 -14.25444,9.17389 -19.77803,9.45752 -3.68918,0.18945 -4.68834,-0.009 -8.5164,-1.68884 -3.36757,-1.47803 -5.73974,-2.04207 -10.61364,-2.52361 -9.92984,-0.98106 -13.31072,0.20837 -17.21638,6.05697 -1.19945,1.79614 -1.20324,2.05522 -0.0469,3.21156 1.4839,1.48391 6.19118,1.17581 10.42373,-0.68223 3.13686,-1.37707 4.46193,-1.60863 9.25305,-1.6171 6.08373,-0.0109 8.44887,0.80697 12.49185,4.31885 3.80427,3.3045 4.14503,3.31904 7.32074,0.31233 3.35551,-3.17692 5.10363,-4.15833 9.4007,-5.27757 4.06317,-1.05833 8.34198,-3.21331 13.15042,-6.6231 4.34005,-3.07763 13.35715,-7.16486 15.80683,-7.16486 2.66679,0 3.7486,1.17626 3.53051,3.8388 -0.24886,3.03807 -1.99442,3.75647 -6.50081,2.6754 -4.12837,-0.99039 -6.04181,-0.19604 -11.95927,4.96475 -4.99579,4.35699 -7.6451,5.69932 -13.1589,6.66727 -4.07231,0.7149 -5.63713,1.72316 -6.20867,4.00039 -0.46531,1.85391 1.34171,4.50375 3.75212,5.50216 1.52921,0.63341 2.88417,0.4542 10.46331,-1.38397 4.78864,-1.16138 11.42971,-2.53853 14.75794,-3.06033 5.5721,-0.87357 6.16646,-0.87328 7.50494,0.004 1.45129,0.95091 1.91085,3.16916 1.09631,5.29181 -0.50462,1.31501 -4.02451,1.19449 -6.98613,-0.23921 l -2.41751,-1.1703 -10.47666,2.64184 c -5.76216,1.45302 -11.31369,2.63604 -12.33673,2.62893 -1.02304,-0.007 -3.01473,-0.53687 -4.42599,-1.17724 -1.41126,-0.64038 -3.60532,-1.16432 -4.8757,-1.16432 -2.68659,0 -7.21986,2.13773 -9.3304,4.39987 -1.44201,1.54562 -1.4472,1.58549 -0.29431,2.2656 2.92705,1.72674 5.89442,2.30796 14.12322,2.76632 11.849,0.66001 16.78379,2.21748 25.87517,8.16642 4.14799,2.71424 4.93342,3.02348 6.85485,2.69885 1.77862,-0.30049 2.3935,-0.1268 3.40878,0.96296 1.47063,1.57855 1.57964,3.302 0.32239,5.09699 -1.60453,2.29078 -3.93219,1.7305 -7.87696,-1.89604 -3.98323,-3.6619 -12.02307,-7.8203 -18.87197,-9.76105 -3.09092,-0.87586 -7.1504,-1.38484 -13.53829,-1.69742 -11.16503,-0.54637 -11.38537,-0.63868 -22.66196,-9.49377 -12.60461,-9.89795 -16.05722,-10.6597 -26.86114,-5.9264 -7.97423,3.49358 -9.40777,4.30093 -10.66211,6.00464 -1.03774,1.40951 -1.05653,1.68848 -0.24468,3.63151 1.02121,2.44412 2.82857,3.61495 4.68019,3.0319 0.71619,-0.22552 2.55934,-1.53794 4.09588,-2.91648 3.25218,-2.91774 7.22634,-4.13884 11.73308,-3.60509 4.13634,0.4899 6.62273,2.27523 9.7235,6.98192 1.52553,2.3156 3.73398,4.78381 5.07432,5.67113 2.25287,1.49144 2.85301,1.58854 11.83504,1.91489 8.68848,0.31567 9.82727,0.48806 13.93297,2.10914 2.45912,0.97097 6.29988,2.97794 8.53501,4.45995 2.23514,1.48201 6.12173,3.53961 8.63688,4.57243 4.68018,1.92187 5.72789,2.92862 5.72789,5.50399 0,3.56751 -4.19173,4.50805 -6.71683,1.50713 -0.83814,-0.99607 -1.52388,-2.03867 -1.52388,-2.31691 0,-0.27826 -2.84746,-2.20089 -6.32768,-4.27255 -12.79018,-7.61353 -12.97584,-7.68845 -15.13659,-6.10848 -1.62952,1.19153 -1.26828,3.93011 1.1172,8.4697 4.85916,9.247 12.40506,15.77866 21.57559,18.67563 5.48995,1.73428 6.86104,1.82525 8.6477,0.57382 0.82221,-0.5759 2.23875,-0.84946 3.80986,-0.73577 l 2.50103,0.18116 v 2.9431 c 0,2.89386 -0.0357,2.95194 -2.13518,3.47076 -1.66753,0.41209 -2.82782,0.26322 -5.2976,-0.67966 -1.73933,-0.66402 -4.88415,-1.51318 -6.98847,-1.88703 -11.26388,-2.00113 -20.20458,-9.48177 -26.54599,-22.21091 -3.88762,-7.80363 -5.63806,-9.30571 -10.82824,-9.29183 -4.03392,0.0109 -6.77241,1.31224 -6.77241,3.21858 0,2.09806 14.89699,22.87773 17.17631,23.95906 0.7509,0.35624 2.59335,1.08346 4.09434,1.61603 4.09387,1.4526 7.76587,4.64151 12.26014,10.64718 3.13916,4.19483 4.64728,5.68739 6.74121,6.67165 2.51567,1.18251 2.69741,1.42019 2.69741,3.52816 0,3.44719 -2.4637,5.13661 -5.28714,3.62556 -0.59915,-0.32066 -1.52998,-1.90954 -2.06848,-3.53083 -0.53852,-1.6213 -2.10185,-4.47129 -3.4741,-6.33329 -3.8867,-5.27388 -12.0515,-11.91288 -14.65742,-11.9183 -2.03771,-0.004 -4.61399,1.85115 -6.33201,4.56017 -2.13477,3.36618 -2.17183,5.19979 -0.18484,9.14267 2.13846,4.24343 10.60725,18.63747 12.03117,20.44884 0.64221,0.81695 1.31902,2.41815 1.50402,3.55823 0.29606,1.82434 0.14975,2.15791 -1.2203,2.78216 -0.85618,0.3901 -2.02492,0.70927 -2.59722,0.70927 -1.35513,0 -3.02444,-3.51237 -3.02444,-6.36372 0,-1.72326 -0.94701,-3.70759 -4.34564,-9.10561 -2.39011,-3.79619 -5.30891,-9.219 -6.48623,-12.05069 -2.77293,-6.66933 -3.46282,-7.9809 -4.17797,-7.94277 -1.00781,0.0537 -2.15571,4.35221 -2.48529,9.30646 -0.38779,5.82921 0.97448,9.65928 4.02089,11.30485 2.90019,1.56659 4.0563,2.92147 4.0563,4.75368 0,1.90016 -1.58268,3.62295 -3.32831,3.62295 -1.76612,0 -3.41515,-2.11332 -5.92835,-7.59755 l -2.26784,-4.94877 -2.126,3.56896 c -3.53015,5.92609 -3.81821,7.19351 -2.33244,10.26272 1.51848,3.13674 1.6838,6.6696 0.33631,7.18668 -1.56189,0.59936 -4.67809,0.3989 -5.42603,-0.34905 -0.38849,-0.38849 -0.70635,-1.41357 -0.70635,-2.27794 0,-2.52544 3.22442,-12.64871 6.36139,-19.97197 3.50112,-8.1734 4.76576,-13.0169 5.35766,-20.51974 0.44047,-5.58335 0.88857,-6.91637 3.99868,-11.89525 0.60062,-0.96151 0.80476,-2.06992 0.56048,-3.04319 -0.55532,-2.21256 -5.25302,-6.66101 -8.23812,-7.80103 -2.31782,-0.88518 -2.76616,-0.89334 -4.69966,-0.0854 -2.37559,0.99259 -4.21093,3.55891 -4.80326,6.7163 -0.25664,1.36805 0.46534,7.07992 2.10583,16.65984 2.38592,13.93306 2.45237,14.64521 1.50174,16.09605 -1.06412,1.62405 -3.1117,1.98699 -5.12655,0.90868 -1.53613,-0.82211 -1.49417,-3.96975 0.0935,-7.0158 2.04824,-3.92964 2.02563,-6.1556 -0.12885,-12.68233 -1.6829,-5.09817 -1.94139,-6.67427 -1.93076,-11.77244 0.01,-4.76412 0.27536,-6.5555 1.39238,-9.39711 l 1.38013,-3.51088 -3.89795,-3.62101 c -6.43919,-5.98171 -9.19659,-6.37503 -11.55713,-1.64851 -2.01608,4.03681 -2.48719,14.1011 -2.24232,47.90291 0.20276,27.98703 0.23315,28.61979 1.54705,32.1922 1.47737,4.01691 4.92736,8.34175 8.40621,10.53784 3.75708,2.37175 10.30688,4.20019 20.80902,5.80902 14.6153,2.23895 16.77573,2.7065 16.77573,3.63057 0,0.677 -8.87579,0.80635 -55.33045,0.80635 -37.3855,0 -55.33048,-0.19564 -55.33048,-0.60319 z m 7.68327,-68.00444 c 0.99192,-1.05585 1.41363,-2.18733 1.41363,-3.79287 0,-1.60553 -0.42171,-2.737 -1.41363,-3.79286 -1.89699,-2.01923 -3.34232,-1.89492 -4.7466,0.40829 -1.62027,2.65743 -1.51458,5.44877 0.274,7.23737 1.82952,1.82952 2.7086,1.81774 4.4726,-0.0599 z m 97.74838,0.25917 c 2.3866,-2.38661 0.53139,-9.34963 -2.49111,-9.34963 -2.4827,0 -4.46285,4.14049 -3.36327,7.03259 1.36011,3.57737 3.67705,4.49436 5.85438,2.31704 z m -80.60618,-33.9246 c 5.22994,-5.42802 5.60239,-6.21551 3.66169,-7.74206 -1.37269,-1.07977 -1.6913,-1.11947 -3.10728,-0.38724 -2.25158,1.16434 -7.01399,6.4217 -7.47269,8.24932 -0.40393,1.60936 0.99071,3.85318 2.39494,3.85318 0.38232,0 2.41782,-1.78794 4.52334,-3.9732 z m 65.63529,2.20168 c 0.55379,-1.10156 0.52149,-1.72153 -0.15816,-3.03583 -1.20446,-2.32916 -4.34917,-5.79626 -6.3744,-7.02786 -1.54306,-0.9384 -1.88471,-0.95668 -3.38459,-0.18107 -0.91755,0.47448 -1.66827,1.27504 -1.66827,1.77903 0,1.29125 9.12343,10.43298 10.09276,10.11299 0.43821,-0.14466 1.10991,-0.88592 1.49266,-1.64726 z m -86.67829,-25.63415 c 3.9876,-2.78753 6.2241,-5.13328 6.2241,-6.52813 0,-1.13316 -3.49182,-3.14453 -5.46365,-3.14717 -3.56363,-0.004 -8.35037,3.07497 -10.1594,6.53646 -0.73999,1.41594 -0.67866,1.65022 0.78833,3.01148 1.59918,1.48393 3.59006,2.75972 4.35849,2.79301 0.2273,0.01 2.14075,-1.1897 4.25213,-2.66565 z m 108.70443,0.75031 c 1.10003,-0.73955 2.07993,-1.89498 2.17752,-2.56764 0.41225,-2.84114 -6.73114,-7.86299 -11.17766,-7.85797 -2.302,0.002 -5.77551,1.95103 -5.77551,3.23971 0,1.28728 4.55613,6.06338 7.03394,7.37355 2.8179,1.48999 5.33712,1.42892 7.74171,-0.18765 z m -55.19028,-44.46977 c 2.37064,-2.474403 2.71103,-6.539893 0.89762,-10.720848 -1.43847,-3.316513 -1.57091,-5.612283 -1.00505,-17.420519 0.16725,-3.49021 0.0111,-4.414723 -0.91986,-5.444751 -1.49743,-1.656838 -3.05323,-1.565737 -4.24189,0.248384 -0.80157,1.223336 -0.89156,2.195025 -0.50432,5.444755 0.25925,2.175621 0.49354,6.207145 0.52065,8.958949 0.0447,4.542056 -0.13188,5.367766 -1.91584,8.956963 -1.83495,3.691777 -1.91647,4.101083 -1.23066,6.179091 0.87931,2.664319 3.6995,5.465716 5.50239,5.465716 0.71455,0 2.01818,-0.75048 2.89696,-1.66774 z M 138.31219,83.149942 c 0.79759,-0.88131 0.91257,-1.745053 0.59363,-4.458857 -0.57656,-4.905587 -2.37427,-6.302503 -4.78585,-3.718882 -1.79258,1.920438 -2.17212,4.117489 -1.07709,6.235029 1.5488,2.995043 3.62443,3.760296 5.26931,1.94271 z m 76.30919,-0.819967 c 1.39419,-2.286659 1.4755,-4.031044 0.29431,-6.315198 -1.0299,-1.991612 -2.92961,-2.771941 -4.19386,-1.722702 -1.67452,1.389732 -2.67597,4.058496 -2.25926,6.020688 0.8953,4.215663 4.16536,5.286711 6.15881,2.017212 z"
   id="path145" /><circle
   style="fill:#fc1212;fill-opacity:1;stroke-width:1.96866"
   id="path146"
   cx="318.28644"
   cy="285.75955"
   r="1.4094563" /></svg>
